PathFileType	4	(X/Y/Z)	./resultDataOpenSim/trcMotMarkerGrf/sub06/qtm-01-08.trc
DataRate	CameraRate	NumFrames	NumMarkers	Units	OrigDataRate	OrigDataStartFrame	OrigNumFrames
250.000000	250.000000	8	24	m	250.000000	178	473
Frame#	Time	L.Toe.Tip			R.Toe.Tip			L.Ankle.Lat			R.Ankle.Lat			L.Ankle.Med			R.Ankle.Med			L.Heel			R.Heel			L.Knee.Lat			R.Knee.Lat			L.Knee.Med			R.Knee.Med			L.Thigh.Upper			R.Thigh.Upper			L.ASIS			R.ASIS			V.Sacral			L.Acromium			R.Acromium			C7			L.Elbow			R.Elbow			L.Wrist.Lat			R.Wrist.Lat
		X1	Y1	Z1	X2	Y2	Z2	X3	Y3	Z3	X4	Y4	Z4	X5	Y5	Z5	X6	Y6	Z6	X7	Y7	Z7	X8	Y8	Z8	X9	Y9	Z9	X10	Y10	Z10	X11	Y11	Z11	X12	Y12	Z12	X13	Y13	Z13	X14	Y14	Z14	X15	Y15	Z15	X16	Y16	Z16	X17	Y17	Z17	X18	Y18	Z18	X19	Y19	Z19	X20	Y20	Z20	X21	Y21	Z21	X22	Y22	Z22	X23	Y23	Z23	X24	Y24	Z24

178	0.708	0.13083148	0.034902178	-0.011789022	-0.54118365	0.078092524	0.12148228	0.0088882296	0.067410711	-0.03839432	-0.53341018	0.21492722	0.16117483	0.0047784705	0.08052422	0.048181952	-0.49148147	0.20170149	0.081112985	-0.0684924	0.040003243	0.0027816143	-0.550856	0.26351795	0.09748336	0.05880095	0.43855057	-0.059626758	-0.19241416	0.38818519	0.20338773	0.027225977	0.43546185	0.058093176	-0.18327354	0.36382222	0.069557959	-0.098640694	0.80200522	-0.12956047	-0.18298552	0.75149624	0.20097904	-0.041048368	0.83765707	-0.0735188	-0.07641464	0.81242764	0.16648193	-0.24741822	0.90088525	0.028820318	-0.13250211	1.300986	-0.16088201	-0.14783318	1.302121	0.20202662	-0.21696757	1.3387227	0.015395165	-0.20859338	0.99317101	-0.20259235	-0.20194656	0.98753949	0.28507953	-0.10292909	0.77700167	-0.24118937	0.0039875896	0.84746635	0.31085201
179	0.712	0.13072443	0.034931968	-0.012014886	-0.52620109	0.080576454	0.1221825	0.0087077263	0.067362641	-0.038605135	-0.51997459	0.21752748	0.16152319	0.0049624192	0.080748004	0.047964897	-0.47825225	0.20455033	0.081464468	-0.068544672	0.040082494	0.0028495373	-0.53839094	0.26599317	0.098201101	0.061081329	0.43806942	-0.060384141	-0.17910703	0.38925156	0.20407164	0.029370347	0.43516202	0.057358657	-0.17046551	0.36589473	0.069892148	-0.094583899	0.80310245	-0.12926813	-0.17538715	0.75288788	0.19968621	-0.034946736	0.83894091	-0.074010859	-0.069857343	0.8141839	0.16631882	-0.2419909	0.90260176	0.028737371	-0.12552644	1.3027268	-0.1609002	-0.14168795	1.3038733	0.20202204	-0.21027831	1.3404775	0.015275898	-0.20050899	0.99448532	-0.20287805	-0.19640691	0.98922703	0.28388414	-0.093324461	0.77900177	-0.24109714	0.0071689107	0.84658535	0.31103206
180	0.716	0.13062596	0.034958474	-0.012216347	-0.51073316	0.082783612	0.12281218	0.0085231268	0.067313952	-0.038812063	-0.50636035	0.21985288	0.16182148	0.0051066965	0.080971168	0.04771285	-0.46490981	0.20739629	0.0818007	-0.068598658	0.040161832	0.0029037883	-0.52579789	0.26802486	0.098804881	0.06320467	0.43761463	-0.061093279	-0.16573191	0.39049379	0.20470118	0.031456602	0.43493516	0.056699498	-0.15777017	0.36808033	0.070215205	-0.090222553	0.80420511	-0.12920975	-0.16803453	0.75439763	0.19858821	-0.028842625	0.84023537	-0.074508062	-0.063349061	0.81600368	0.16618082	-0.23666158	0.90425194	0.029350612	-0.1186152	1.3045367	-0.16089073	-0.13559863	1.3056816	0.20204051	-0.20362327	1.342247	0.015159162	-0.19242748	0.99586655	-0.20314271	-0.19091027	0.99097224	0.28267405	-0.083632033	0.78112046	-0.24092695	0.010246455	0.84579048	0.31120226
181	0.72	0.13053538	0.034981458	-0.012405623	-0.49489493	0.084718362	0.12338221	0.0083183129	0.067258351	-0.03902803	-0.49257507	0.22193234	0.16207596	0.0051917869	0.081174938	0.047475498	-0.45141845	0.21019729	0.082070617	-0.068664693	0.040226207	0.0029177805	-0.51318883	0.26971288	0.099354605	0.065176319	0.43719475	-0.061751521	-0.15231423	0.39191497	0.20528004	0.033574972	0.43481036	0.056161898	-0.14502186	0.37032701	0.070568177	-0.085590156	0.80531196	-0.12935562	-0.16097886	0.75603234	0.19774565	-0.022770271	0.84153486	-0.075005038	-0.056882002	0.81787607	0.16606325	-0.23102997	0.90597406	0.030416442	-0.11176858	1.3064105	-0.1608522	-0.12954929	1.3075391	0.20207751	-0.19700451	1.3440289	0.01505359	-0.18435987	0.99730437	-0.20339015	-0.18541246	0.99275357	0.28139505	-0.073813165	0.7833616	-0.2406598	0.013222125	0.84508599	0.31136073
182	0.724	0.13044866	0.034999151	-0.012589314	-0.47875361	0.086394651	0.12390544	0.0080979617	0.067204415	-0.039248835	-0.47863673	0.2237892	0.16229994	0.0052241263	0.081365019	0.047264533	-0.43777214	0.21290052	0.082255685	-0.068740658	0.040277702	0.0028984297	-0.50058647	0.27111947	0.099898086	0.066997906	0.43681297	-0.062356507	-0.13889476	0.39352406	0.20580217	0.035789952	0.43479675	0.055787185	-0.13213181	0.37261935	0.070957324	-0.080745537	0.80641878	-0.12967245	-0.15418147	0.75777967	0.19714401	-0.016763704	0.84282874	-0.075500493	-0.050460623	0.81979098	0.16595988	-0.22493711	0.90787313	0.031486082	-0.10498641	1.3083411	-0.16078046	-0.12353009	1.3094354	0.20212823	-0.19042766	1.3458194	0.014967565	-0.17631434	0.99878968	-0.20362305	-0.17990442	0.99455891	0.28001219	-0.063875517	0.78571282	-0.24031284	0.016097875	0.84447487	0.31150561
183	0.728	0.13036353	0.03500896	-0.012763396	-0.46236045	0.087827396	0.12440422	0.007894107	0.067167042	-0.039448693	-0.46457134	0.22542021	0.16251405	0.0052168284	0.08154996	0.047070355	-0.42397887	0.21541968	0.082397792	-0.068821024	0.0403279	0.0028515715	-0.48792942	0.27225078	0.10044164	0.068683388	0.43647312	-0.062896402	-0.12551248	0.3953198	0.20625388	0.038036537	0.43486632	0.055550911	-0.11909521	0.37496242	0.071365939	-0.075727361	0.80752253	-0.13013447	-0.14752174	0.7596142	0.19670293	-0.010829435	0.8441107	-0.076003814	-0.044083659	0.82174204	0.16586014	-0.21849515	0.90991997	0.032210975	-0.098265037	1.3103209	-0.16068011	-0.11753695	1.3113603	0.20219014	-0.18389	1.3476156	0.014905308	-0.16828971	1.0003171	-0.20384843	-0.17443178	0.99640378	0.27859752	-0.053843601	0.78815891	-0.23991131	0.018886955	0.84395533	0.31163825
184	0.732	0.13028082	0.035008365	-0.012919532	-0.44575657	0.089039153	0.12492018	0.007729837	0.067152809	-0.039610608	-0.45040666	0.22679216	0.16273092	0.005181402	0.081732709	0.046886135	-0.41005095	0.21765045	0.082565776	-0.068902014	0.040388448	0.0027727294	-0.47515429	0.27308978	0.10095637	0.070258862	0.43617715	-0.063355074	-0.11219747	0.39729453	0.20662815	0.040145804	0.43496832	0.055368052	-0.10594366	0.37735883	0.071760667	-0.070554373	0.80862165	-0.13072188	-0.14086699	0.7615139	0.19633334	-0.004954927	0.84538532	-0.076523941	-0.037736215	0.82372504	0.16574929	-0.21188252	0.91198289	0.032445629	-0.091599268	1.3123437	-0.16056013	-0.11156167	1.313304	0.20226338	-0.17738416	1.3494221	0.014869526	-0.16027848	1.001882	-0.20408094	-0.16904195	0.99831687	0.27730101	-0.043766807	0.7906804	-0.23947415	0.02161616	0.84351966	0.31176136
185	0.736	0.13020289	0.034999274	-0.013050092	-0.42895243	0.090068263	0.12550981	0.0075994122	0.067155175	-0.039740576	-0.43615957	0.22786769	0.16294549	0.0051276817	0.081910446	0.04671273	-0.39599314	0.21950814	0.082791698	-0.068979032	0.04046259	0.0026701793	-0.4622487	0.2736362	0.10141343	0.071755927	0.43592426	-0.063721615	-0.098971587	0.39944606	0.206931	0.042001493	0.43506975	0.055173731	-0.092729221	0.37979526	0.0720968	-0.065237038	0.80971532	-0.13141696	-0.13413939	0.76346851	0.19598585	0.00086600788	0.84666211	-0.077058171	-0.031393532	0.82573301	0.1656143	-0.20515713	0.91393711	0.032212065	-0.08498258	1.3144032	-0.16042136	-0.10558641	1.3152577	0.20234808	-0.17090391	1.3512486	0.014862622	-0.15228012	1.0034794	-0.20433314	-0.16371811	1.0003089	0.27620266	-0.033698061	0.79325473	-0.23900924	0.024310615	0.84315746	0.311876
